<svg xmlns="http://www.w3.org/2000/svg" width="512" height="512" xml:space="preserve"><g><path fill="#2D415A" d="M444.716 387.304h-71.894c-5 0-9.053-4.053-9.053-9.053 0-5 4.053-9.053 9.053-9.053h71.894c5 0 9.053 4.053 9.053 9.053-.001 5-4.054 9.053-9.053 9.053z"/><path fill="#2D415A" d="M433.768 360.333h8.428v66.313h-8.428z"/><path fill="#E3E3E3" d="M176.88 128.082h5.776v37.181h-5.776z"/><path fill="#A3A3A3" d="M140.768 150.325h78v17.189h-78zM152.52 126.229h54.496v10.888H152.52z"/><circle fill="#4A4A4A" cx="296.318" cy="388.5" r="38.25"/><circle fill="#E3E3E3" cx="296.318" cy="388.5" r="23.847"/><circle fill="#4A4A4A" cx="146.318" cy="388.5" r="38.25"/><circle fill="#E3E3E3" cx="146.318" cy="388.5" r="23.847"/><path fill="#A3A3A3" d="M63.017 372.937c5.102 9.378 13.804 15.613 23.764 15.613h268.384s20.195-1.136 38.918-15.613H63.017z"/><path fill="#E3E3E3" d="M63.017 372.937h331.065a72.42 72.42 0 0 0 11.564-11.2H59.039c.795 4.041 2.143 7.828 3.978 11.2zM349.296 158.063H100.857c-18.13 0-33.151 17.246-34.337 39.426l-1.6 29.895h352.179c-19.681-70.867-67.803-69.321-67.803-69.321zM64.256 239.792l-3.063 57.238h364.142c-.035-22.54-1.994-41.416-5.258-57.238H64.256z"/><path fill="#FFD161" d="M58.292 351.256c-.194 3.624.09 7.138.748 10.48h346.607c11.137-13.487 19.695-33.726 19.695-64.101 0-.205-.005-.402-.005-.606H61.193l-2.901 54.227z"/><path fill="#FF6650" d="M417.099 227.383H64.92l-.664 12.409h355.822a188.72 188.72 0 0 0-2.979-12.409z"/><path fill="#2D415A" d="M198.768 309.12c0 2.2-1.8 4-4 4h-114c-2.2 0-3.875-1.796-3.722-3.99l4.993-71.551c.153-2.195 2.078-3.99 4.278-3.99h108.451c2.2 0 4 1.8 4 4v71.531zM275.777 309.12c0 2.2-1.8 4-4 4h-59.983c-2.2 0-4-1.8-4-4v-71.532c0-2.2 1.8-4 4-4h59.983c2.2 0 4 1.8 4 4v71.532z"/><path fill="#6FEBE7" d="M262 295.937a4 4 0 0 1-4 4h-32a4 4 0 0 1-4-4v-44a4 4 0 0 1 4-4h32a4 4 0 0 1 4 4v44z"/><path fill="#2D415A" d="M275.777 309.12c0 2.2-1.8 4-4 4h-59.983c-2.2 0-4-1.8-4-4v-71.532c0-2.2 1.8-4 4-4h59.983c2.2 0 4 1.8 4 4v71.532z"/><path fill="#FF6650" d="M285.165 216.896h70V388.55h-70z"/><path fill="#2D415A" d="M339.29 282.461c0 2.2-1.8 4-4 4h-30.25c-2.2 0-4-1.8-4-4v-44.873c0-2.2 1.8-4 4-4h30.25c2.2 0 4 1.8 4 4v44.873z"/><path fill="#6FEBE7" d="M184.768 243.937H95.644c-2.2 0-4.125 1.575-4.278 3.77l-1.488 21.23H189v-21.35c0-2.199-2.032-3.65-4.232-3.65z"/><path fill="#54B3AF" d="M87.768 299.038c-.153 2.195 1.522 3.899 3.722 3.899h93.278c2.2 0 4.232-1.617 4.232-3.817v-30.183H89.878l-2.11 30.101zM218 299.937c0 2.209 1.559 4 3.768 4h40c2.209 0 4.232-1.791 4.232-4v-31h-48v31z"/><path fill="#6FEBE7" d="M261.768 243.937h-40c-2.209 0-3.768 1.791-3.768 4v21h48v-21c0-2.209-2.023-4-4.232-4z"/><path fill="#54B3AF" d="M311 268.937v4c0 2.209 1.559 4 3.768 4h10c2.209 0 4.232-1.791 4.232-4v-4h-18z"/><path fill="#6FEBE7" d="M329 247.937c0-2.209-2.023-4-4.232-4h-10c-2.209 0-3.768 1.791-3.768 4v21h18v-21z"/><path fill="#FFF" d="M110.801 216.896H94.726a6.967 6.967 0 0 1-6.967-6.967v-3.95a6.967 6.967 0 0 1 6.967-6.967h16.076a6.967 6.967 0 0 1 6.967 6.967v3.95a6.968 6.968 0 0 1-6.968 6.967z"/><path fill="#FF6650" d="M389.01 207.955h-13.17a5.072 5.072 0 0 1 0-10.144h13.17a5.072 5.072 0 0 1 0 10.144z"/><path fill="none" stroke="#A3A3A3" stroke-width="5" stroke-linecap="round" stroke-linejoin="round" stroke-miterlimit="10" d="M108.768 190.937h13.5a9.5 9.5 0 0 1 9.5 9.5v0a9.5 9.5 0 0 0 9.5 9.5h200a9.5 9.5 0 0 0 9.5-9.5v-24a9.5 9.5 0 0 0-9.5-9.5h-228.75a9.5 9.5 0 0 0-7.6 3.8l-3.75 5c-4.697 6.263-.228 15.2 7.6 15.2z"/><path fill="none" stroke="#E3E3E3" stroke-width="10" stroke-linecap="round" stroke-linejoin="round" stroke-miterlimit="10" d="M335 302.937h12"/><g><path fill="#B04637" d="M342.165 322.937h-44a2.5 2.5 0 1 1 0-5h44a2.5 2.5 0 1 1 0 5zM342.165 332.937h-44a2.5 2.5 0 1 1 0-5h44a2.5 2.5 0 1 1 0 5zM342.165 342.937h-44a2.5 2.5 0 1 1 0-5h44a2.5 2.5 0 1 1 0 5zM342.165 352.937h-44a2.5 2.5 0 1 1 0-5h44a2.5 2.5 0 1 1 0 5zM342.165 362.937h-44a2.5 2.5 0 1 1 0-5h44a2.5 2.5 0 1 1 0 5z"/></g><path fill="#2D415A" d="M350.308 222.597h-60.286c-5.444 0-9.857-4.413-9.857-9.857 0-5.444 4.413-9.857 9.857-9.857h60.286c5.444 0 9.857 4.413 9.857 9.857 0 5.444-4.414 9.857-9.857 9.857z"/><path fill="none" stroke="#A3A3A3" stroke-width="5" stroke-linecap="round" stroke-linejoin="round" stroke-miterlimit="10" d="M370.768 252.901h38v34.933h-38z"/></g></svg>